<svg xmlns="http://www.w3.org/2000/svg" xmlns:xlink="http://www.w3.org/1999/xlink" xml:lang="en" height="286.19999999999993pt" width="353.9718pt" viewBox="-48.34440000000001 -224.09999999999997 353.9718 286.19999999999993"><desc>VeriCircuit Tutor renderer: schemdraw_current_divider</desc><circle cx="0" cy="-81" r="16.2" style="stroke:black;fill:none;stroke-width:2.0;stroke-dasharray:-;" /><path d="M 0.0,-0.0 L 0,-64.8 L 0,-64.8 M 0,-97.2 L 0,-97.2 L 0,-162" style="stroke:black;fill:none;stroke-width:2.0;stroke-dasharray:-;stroke-linecap:round;stroke-linejoin:round;" /><path d="M 4.463837582892102e-15,-72.89999999999999 L 0,-81" style="stroke:black;fill:none;stroke-width:2.0;stroke-dasharray:-;stroke-linecap:round;stroke-linejoin:round;" /><path d="M 0 -87.1 L 2.43 -81 L -2.43 -81 Z" style="stroke:black;fill:black;stroke-linecap:butt;stroke-linejoin:miter;" /><path d="M 0.0,-162.0 L 129.6,-162 L 259.2,-162" style="stroke:black;fill:none;stroke-width:2.0;stroke-dasharray:-;stroke-linecap:round;stroke-linejoin:round;" /><path d="M 259.2,-0.0 L 129.6,-0 L 0,-0" style="stroke:black;fill:none;stroke-width:2.0;stroke-dasharray:-;stroke-linecap:round;stroke-linejoin:round;" /><path d="M 129.6,-162.0 L 129.6,-97.2 L 137.7,-94.5 L 121.5,-89.1 L 137.7,-83.7 L 121.5,-78.3 L 137.7,-72.9 L 121.5,-67.5 L 129.6,-64.8 L 129.6,-0" style="stroke:black;fill:none;stroke-width:2.0;stroke-dasharray:-;stroke-linecap:round;stroke-linejoin:round;" /><path d="M 259.2,-162.0 L 259.2,-97.2 L 267.3,-94.5 L 251.1,-89.1 L 267.3,-83.7 L 251.1,-78.3 L 267.3,-72.9 L 251.1,-67.5 L 259.2,-64.8 L 259.2,-0" style="stroke:black;fill:none;stroke-width:2.0;stroke-dasharray:-;stroke-linecap:round;stroke-linejoin:round;" /><path d="M 0.0,-0.0 L 0,12.96 L -8.1,12.96 L 8.1,12.96 M -5.67,16.848 L 5.67,16.848 M -1.62,20.736 L 1.62,20.736" style="stroke:black;fill:none;stroke-width:2.0;stroke-dasharray:-;stroke-linecap:round;stroke-linejoin:round;" /><text x="-3.2400000000000015" y="10.299999999999997" dominant-baseline="hanging" fill="black" font-size="14" font-family="sans" text-anchor="middle"><tspan x="-3.2400000000000015" dy="14">I1 = 3 mA</tspan></text><text x="126.35999999999999" y="-191.82000000000002" dominant-baseline="central" fill="black" font-size="12" font-family="sans" text-anchor="middle"><tspan x="126.35999999999999" dy="12">top</tspan></text><text x="129.6" y="16.780000000000005" dominant-baseline="hanging" fill="black" font-size="14" font-family="sans" text-anchor="middle"><tspan x="129.6" dy="14">R1 = 2 kΩ</tspan></text><text x="259.2" y="-206.78" dominant-baseline="ideographic" fill="black" font-size="14" font-family="sans" text-anchor="middle"><tspan x="259.2" dy="14">R2 = 1 kΩ</tspan></text><text x="132.83999999999997" y="15.54" dominant-baseline="central" fill="black" font-size="12" font-family="sans" text-anchor="middle"><tspan x="132.83999999999997" dy="12">0</tspan></text><circle cx="129.6" cy="-162" r="2.43" style="stroke:black;fill:black;stroke-width:2.0;stroke-dasharray:-;" /><circle cx="129.6" cy="-0" r="2.43" style="stroke:black;fill:black;stroke-width:2.0;stroke-dasharray:-;" /></svg>