<svg xmlns="http://www.w3.org/2000/svg" xmlns:xlink="http://www.w3.org/1999/xlink" xml:lang="en" height="279.71999999999997pt" width="241.21439999999998pt" viewBox="-48.987 -224.09999999999997 241.21439999999998 279.71999999999997"><desc>VeriCircuit Tutor renderer: schemdraw_voltage_divider</desc><circle cx="0" cy="-81" r="16.2" style="stroke:black;fill:none;stroke-width:2.0;stroke-dasharray:-;" /><path d="M 0.0,-0.0 L 0,-64.8 L 0,-64.8 M 0,-97.2 L 0,-97.2 L 0,-162" style="stroke:black;fill:none;stroke-width:2.0;stroke-dasharray:-;stroke-linecap:round;stroke-linejoin:round;" /><path d="M 3.2400000000000047,-72.89999999999999 L -3.24,-72.9" style="stroke:black;fill:none;stroke-width:2.0;stroke-dasharray:-;stroke-linecap:round;stroke-linejoin:round;" /><path d="M 5.257408708739587e-15,-85.86 L 0,-92.34" style="stroke:black;fill:none;stroke-width:2.0;stroke-dasharray:-;stroke-linecap:round;stroke-linejoin:round;" /><path d="M 3.2400000000000055,-89.1 L -3.24,-89.1" style="stroke:black;fill:none;stroke-width:2.0;stroke-dasharray:-;stroke-linecap:round;stroke-linejoin:round;" /><path d="M 0.0,-162.0 L 72.9,-162 L 145.8,-162" style="stroke:black;fill:none;stroke-width:2.0;stroke-dasharray:-;stroke-linecap:round;stroke-linejoin:round;" /><path d="M 145.79999999999998,-162.0 L 145.8,-137.7 L 153.9,-135 L 137.7,-129.6 L 153.9,-124.2 L 137.7,-118.8 L 153.9,-113.4 L 137.7,-108 L 145.8,-105.3 L 145.8,-81" style="stroke:black;fill:none;stroke-width:2.0;stroke-dasharray:-;stroke-linecap:round;stroke-linejoin:round;" /><path d="M 145.79999999999998,-81.0 L 145.8,-56.7 L 153.9,-54 L 137.7,-48.6 L 153.9,-43.2 L 137.7,-37.8 L 153.9,-32.4 L 137.7,-27 L 145.8,-24.3 L 145.8,-0" style="stroke:black;fill:none;stroke-width:2.0;stroke-dasharray:-;stroke-linecap:round;stroke-linejoin:round;" /><path d="M 145.79999999999998,-0.0 L 72.9,-0 L 0,-0" style="stroke:black;fill:none;stroke-width:2.0;stroke-dasharray:-;stroke-linecap:round;stroke-linejoin:round;" /><path d="M 0.0,-0.0 L 0,12.96 L -8.1,12.96 L 8.1,12.96 M -5.67,16.848 L 5.67,16.848 M -1.62,20.736 L 1.62,20.736" style="stroke:black;fill:none;stroke-width:2.0;stroke-dasharray:-;stroke-linecap:round;stroke-linejoin:round;" /><text x="-3.2400000000000015" y="10.299999999999997" dominant-baseline="hanging" fill="black" font-size="14" font-family="sans" text-anchor="middle"><tspan x="-3.2400000000000015" dy="14">V1 = 10 V</tspan></text><text x="166.85999999999999" y="-195.05999999999997" dominant-baseline="central" fill="black" font-size="12" font-family="sans" text-anchor="middle"><tspan x="166.85999999999999" dy="12">n1</tspan></text><text x="145.79999999999998" y="-206.78" dominant-baseline="ideographic" fill="black" font-size="14" font-family="sans" text-anchor="middle"><tspan x="145.79999999999998" dy="14">R1 = 2 kΩ</tspan></text><text x="127.98" y="-89.75999999999999" dominant-baseline="central" fill="black" font-size="12" font-family="sans" text-anchor="middle"><tspan x="127.98" dy="12">n2</tspan></text><text x="145.79999999999998" y="-125.78" dominant-baseline="ideographic" fill="black" font-size="14" font-family="sans" text-anchor="middle"><tspan x="145.79999999999998" dy="14">R2 = 3 kΩ</tspan></text><text x="160.38" y="10.679999999999996" dominant-baseline="central" fill="black" font-size="12" font-family="sans" text-anchor="middle"><tspan x="160.38" dy="12">0</tspan></text><circle cx="0" cy="-162" r="2.43" style="stroke:black;fill:black;stroke-width:2.0;stroke-dasharray:-;" /><circle cx="145.8" cy="-162" r="2.43" style="stroke:black;fill:black;stroke-width:2.0;stroke-dasharray:-;" /><circle cx="145.8" cy="-81" r="2.43" style="stroke:black;fill:black;stroke-width:2.0;stroke-dasharray:-;" /><circle cx="145.8" cy="-0" r="2.43" style="stroke:black;fill:black;stroke-width:2.0;stroke-dasharray:-;" /></svg>